<svg id="visual" viewBox="0 0 900 600" width="900" height="600" xmlns="http://www.w3.org/2000/svg" xmlns:xlink="http://www.w3.org/1999/xlink" version="1.1"><rect x="0" y="0" width="900" height="600" fill="#26002c"></rect><path d="M0 399L15 396.5C30 394 60 389 90 414C120 439 150 494 180 501C210 508 240 467 270 465.8C300 464.7 330 503.3 360 505.5C390 507.7 420 473.3 450 472.3C480 471.3 510 503.7 540 528.2C570 552.7 600 569.3 630 568.7C660 568 690 550 720 526.5C750 503 780 474 810 468.3C840 462.7 870 480.3 885 489.2L900 498L900 601L885 601C870 601 840 601 810 601C780 601 750 601 720 601C690 601 660 601 630 601C600 601 570 601 540 601C510 601 480 601 450 601C420 601 390 601 360 601C330 601 300 601 270 601C240 601 210 601 180 601C150 601 120 601 90 601C60 601 30 601 15 601L0 601Z" fill="#c724a1"></path></svg>